<?xml version="1.0" encoding="iso-8859-1"?>
<!-- Generator: Adobe Illustrator 19.0.0, SVG Export Plug-In . SVG Version: 6.00 Build 0)  -->
<svg version="1.1" id="Capa_1" xmlns="http://www.w3.org/2000/svg" xmlns:xlink="http://www.w3.org/1999/xlink" x="0px" y="0px"
	 viewBox="0 0 511.999 511.999" style="enable-background:new 0 0 511.999 511.999;" xml:space="preserve">
<path style="fill:#FF8087;" d="M289.145,34.89l32.628,100.418c6.999,21.54,27.072,36.124,49.72,36.124h105.586
	c33.763,0,47.8,43.204,20.486,63.049l-85.421,62.062c-18.323,13.312-25.99,36.909-18.991,58.45l32.628,100.418
	c10.433,32.11-26.318,58.812-53.633,38.966l-97.802-71.058c-10.94-7.948-25.754-7.948-36.694,0l-97.802,71.058
	c-27.314,19.845-64.066-6.856-53.633-38.966l32.628-100.418c6.999-21.54-0.668-45.137-18.991-58.45l-85.421-62.062
	c-27.314-19.845-13.277-63.049,20.486-63.049h105.586c22.649,0,42.721-14.584,49.72-36.124L222.853,34.89
	C233.285,2.78,278.712,2.78,289.145,34.89z"/>
<g>
	<path style="fill:#E6646E;" d="M477.079,171.432H371.493c-10.987,0-21.333-3.487-29.909-9.481l-85.586,117.807l254.503-83.129
		C506.499,182.85,494.423,171.432,477.079,171.432z"/>
	<path style="fill:#E6646E;" d="M393.152,354.992c-3.33-10.249-3.246-20.939-0.367-30.789l-136.787-44.445l156.108,215.248
		c11.891-8.057,19.039-23.084,13.673-39.596L393.152,354.992z"/>
	<path style="fill:#E6646E;" d="M255.998,279.758L99.807,494.955c11.238,7.659,26.741,9.084,40.041-0.579l97.802-71.057
		c5.472-3.976,11.914-5.963,18.356-5.961L255.998,279.758z"/>
	<path style="fill:#E6646E;" d="M222.851,34.89l-32.628,100.418c-3.604,11.092-10.711,20.284-19.816,26.646l85.591,117.804V10.807
		C242.033,10.807,228.068,18.834,222.851,34.89z"/>
	<path style="fill:#E6646E;" d="M1.463,196.761c-3.726,13.014-0.27,28.101,12.969,37.719l85.421,62.062
		c9.605,6.978,16.187,16.808,19.358,27.66l136.787-44.444L1.463,196.761z"/>
</g>
<g>
	<path style="fill:#FFA0A5;" d="M255.998,162.202c4.565,0,8.258-3.694,8.258-8.258v-16.516c0-4.565-3.694-8.258-8.258-8.258
		c-4.564,0-8.258,3.694-8.258,8.258v16.516C247.74,158.509,251.433,162.202,255.998,162.202z"/>
	<path style="fill:#FFA0A5;" d="M255.998,63.106c4.565,0,8.258-3.694,8.258-8.258V38.331c0-4.565-3.694-8.258-8.258-8.258
		c-4.564,0-8.258,3.694-8.258,8.258v16.516C247.74,59.412,251.433,63.106,255.998,63.106z"/>
	<path style="fill:#FFA0A5;" d="M255.998,112.654c4.565,0,8.258-3.694,8.258-8.258V87.88c0-4.565-3.694-8.258-8.258-8.258
		c-4.564,0-8.258,3.694-8.258,8.258v16.516C247.74,108.96,251.433,112.654,255.998,112.654z"/>
	<path style="fill:#FFA0A5;" d="M255.998,211.751c4.565,0,8.258-3.694,8.258-8.258v-16.516c0-4.565-3.694-8.258-8.258-8.258
		c-4.564,0-8.258,3.694-8.258,8.258v16.516C247.74,208.057,251.433,211.751,255.998,211.751z"/>
	<path style="fill:#FFA0A5;" d="M144.248,243.396c1.411-4.339-0.968-9-5.298-10.411l-15.702-5.105
		c-4.379-1.411-8.992,0.968-10.411,5.298c-1.411,4.339,0.968,9,5.298,10.411l15.702,5.105c0.855,0.274,1.71,0.403,2.556,0.403
		C139.877,249.098,143.111,246.88,144.248,243.396z"/>
	<path style="fill:#FFA0A5;" d="M91.821,217.678l-15.71-5.105c-4.323-1.403-8.992,0.968-10.403,5.306
		c-1.411,4.331,0.968,8.992,5.306,10.403l15.71,5.105c0.847,0.274,1.702,0.403,2.548,0.403c3.484,0,6.718-2.218,7.855-5.71
		C98.538,223.751,96.159,219.089,91.821,217.678z"/>
	<path style="fill:#FFA0A5;" d="M186.071,248.299l-15.71-5.105c-4.331-1.403-8.992,0.968-10.403,5.306
		c-1.411,4.331,0.968,8.992,5.306,10.403l15.71,5.105c0.847,0.274,1.702,0.403,2.548,0.403c3.484,0,6.718-2.218,7.855-5.71
		C192.788,254.372,190.409,249.71,186.071,248.299z"/>
	<path style="fill:#FFA0A5;" d="M44.7,202.364l-15.71-5.105c-4.323-1.395-8.992,0.968-10.403,5.306
		c-1.411,4.331,0.968,8.992,5.306,10.403l15.71,5.105c0.847,0.274,1.702,0.403,2.548,0.403c3.484,0,6.718-2.218,7.855-5.71
		C51.417,208.436,49.038,203.775,44.7,202.364z"/>
	<path style="fill:#FFA0A5;" d="M175.393,376.589l-9.702,13.363c-2.677,3.694-1.855,8.855,1.831,11.54
		c1.468,1.065,3.169,1.573,4.847,1.573c2.556,0,5.073-1.177,6.694-3.403l9.702-13.363c2.677-3.694,1.855-8.855-1.831-11.54
		C183.224,372.065,178.071,372.896,175.393,376.589z"/>
	<path style="fill:#FFA0A5;" d="M117.159,456.759l-9.71,13.363c-2.685,3.694-1.863,8.855,1.823,11.532
		c1.468,1.065,3.161,1.581,4.847,1.581c2.556,0,5.073-1.177,6.685-3.403l9.71-13.363c2.685-3.694,1.863-8.855-1.823-11.532
		C124.99,452.251,119.829,453.065,117.159,456.759z"/>
	<path style="fill:#FFA0A5;" d="M146.28,416.67l-9.71,13.363c-2.685,3.694-1.863,8.855,1.823,11.532
		c1.468,1.065,3.161,1.581,4.847,1.581c2.556,0,5.073-1.177,6.685-3.403l9.71-13.363c2.685-3.694,1.863-8.855-1.823-11.532
		C154.119,412.17,148.95,412.977,146.28,416.67z"/>
	<path style="fill:#FFA0A5;" d="M204.53,336.501l-9.71,13.363c-2.685,3.694-1.863,8.855,1.822,11.532
		c1.468,1.065,3.161,1.581,4.847,1.581c2.556,0,5.073-1.177,6.685-3.403l9.71-13.363c2.685-3.694,1.863-8.855-1.823-11.532
		C212.369,332.001,207.2,332.799,204.53,336.501z"/>
	<path style="fill:#FFA0A5;" d="M365.716,416.67c-2.677-3.694-7.839-4.5-11.532-1.823c-3.685,2.677-4.508,7.839-1.823,11.532
		l9.71,13.363c1.613,2.226,4.129,3.403,6.685,3.403c1.685,0,3.379-0.516,4.847-1.581c3.685-2.677,4.508-7.839,1.823-11.532
		L365.716,416.67z"/>
	<path style="fill:#FFA0A5;" d="M394.837,456.759c-2.677-3.694-7.839-4.5-11.532-1.823c-3.685,2.677-4.508,7.839-1.823,11.532
		l9.71,13.363c1.613,2.226,4.129,3.403,6.685,3.403c1.685,0,3.379-0.516,4.847-1.581c3.685-2.677,4.508-7.839,1.823-11.532
		L394.837,456.759z"/>
	<path style="fill:#FFA0A5;" d="M336.603,376.589c-2.677-3.685-7.831-4.516-11.54-1.831c-3.685,2.685-4.508,7.847-1.831,11.54
		l9.702,13.363c1.621,2.226,4.137,3.403,6.694,3.403c1.677,0,3.379-0.508,4.847-1.573c3.685-2.685,4.508-7.847,1.831-11.54
		L336.603,376.589z"/>
	<path style="fill:#FFA0A5;" d="M279.193,297.587c3.817-4.956,6.177-11.09,6.177-17.829c0-0.302-0.08-0.583-0.089-0.883l14.33-4.656
		c4.339-1.411,6.718-6.073,5.306-10.403c-1.411-4.339-6.089-6.71-10.403-5.306l-14.307,4.649c-3.774-5.493-9.407-9.522-15.951-11.45
		v-15.183c0-4.565-3.694-8.258-8.258-8.258c-4.564,0-8.258,3.694-8.258,8.258v15.183c-6.541,1.927-12.173,5.954-15.947,11.444
		l-14.311-4.643c-4.331-1.395-9,0.968-10.403,5.306c-1.411,4.339,0.968,8.992,5.306,10.403l14.331,4.649
		c-0.009,0.302-0.09,0.585-0.09,0.89c0,6.739,2.36,12.873,6.177,17.829l-8.861,12.188c-2.685,3.685-1.871,8.855,1.823,11.532
		c1.468,1.065,3.161,1.581,4.847,1.581c2.556,0,5.073-1.177,6.685-3.403l8.85-12.172c3.093,1.107,6.378,1.817,9.852,1.817
		c3.474,0,6.759-0.71,9.852-1.817l8.85,12.172c1.613,2.226,4.129,3.403,6.685,3.403c1.685,0,3.379-0.516,4.847-1.581
		c3.694-2.677,4.508-7.847,1.823-11.532L279.193,297.587z"/>
	<path style="fill:#FFA0A5;" d="M307.466,336.501c-2.677-3.694-7.839-4.5-11.532-1.823c-3.685,2.677-4.508,7.839-1.823,11.532
		l9.71,13.363c1.613,2.226,4.129,3.403,6.685,3.403c1.685,0,3.379-0.516,4.847-1.581c3.686-2.677,4.508-7.839,1.823-11.532
		L307.466,336.501z"/>
	<path style="fill:#FFA0A5;" d="M435.885,212.573l-15.71,5.105c-4.339,1.411-6.718,6.073-5.306,10.403
		c1.137,3.492,4.371,5.71,7.855,5.71c0.847,0,1.702-0.129,2.548-0.403l15.71-5.105c4.339-1.411,6.718-6.073,5.306-10.403
		C444.877,213.533,440.216,211.162,435.885,212.573z"/>
	<path style="fill:#FFA0A5;" d="M493.409,202.573c-1.411-4.339-6.073-6.71-10.403-5.306l-15.71,5.105
		c-4.339,1.411-6.718,6.073-5.306,10.403c1.137,3.492,4.371,5.71,7.855,5.71c0.847,0,1.702-0.129,2.548-0.403l15.71-5.105
		C492.442,211.565,494.821,206.904,493.409,202.573z"/>
	<path style="fill:#FFA0A5;" d="M399.159,233.186c-1.411-4.331-6.04-6.702-10.411-5.298l-15.702,5.105
		c-4.331,1.411-6.71,6.073-5.298,10.411c1.137,3.484,4.371,5.702,7.855,5.702c0.847,0,1.702-0.129,2.556-0.403l15.702-5.105
		C398.192,242.186,400.571,237.525,399.159,233.186z"/>
	<path style="fill:#FFA0A5;" d="M352.038,248.501c-1.411-4.347-6.089-6.718-10.403-5.306l-15.71,5.105
		c-4.339,1.411-6.718,6.073-5.306,10.403c1.137,3.492,4.371,5.71,7.855,5.71c0.847,0,1.702-0.129,2.548-0.403l15.71-5.105
		C351.071,257.493,353.45,252.831,352.038,248.501z"/>
</g>
</svg>
